<svg
  width="113"
  height="139"
  viewBox="0 0 113 139"
  fill="none"
  xmlns="http://www.w3.org/2000/svg"
>
  <path
    d="M51.2897 98.6354C53.1657 98.6354 54.6865 97.1924 54.6865 95.4125C54.6865 93.6325 53.1657 92.1895 51.2897 92.1895C49.4136 92.1895 47.8928 93.6325 47.8928 95.4125C47.8928 97.1924 49.4136 98.6354 51.2897 98.6354Z"
    fill="#EE24FF"
  />
  <path
    d="M57.7157 40.0951C53.5248 39.6466 49.3178 40.796 46.0201 43.2906C42.7224 45.7851 40.6042 49.4203 40.1315 53.3967C39.1471 61.6769 43.7448 79.6577 52.1273 87.101C56.0742 72.8403 69.905 64.3816 71.7351 56.779C73.6906 48.6555 66.4428 41.0292 57.7157 40.0951Z"
    fill="#EE24FF"
  />
  <path
    d="M56.079 58.0308C58.9432 58.0308 61.2652 55.8278 61.2652 53.1102C61.2652 50.3926 58.9432 48.1895 56.079 48.1895C53.2147 48.1895 50.8928 50.3926 50.8928 53.1102C50.8928 55.8278 53.2147 58.0308 56.079 58.0308Z"
    fill="white"
  />
</svg>
